<svg width="24" height="26" viewBox="0 0 24 26" fill="none" xmlns="http://www.w3.org/2000/svg">
<path d="M5.33593 23.166H18.4404C18.2353 22.5859 17.9219 22.0469 17.5 21.5488C17.084 21.0566 16.5889 20.626 16.0146 20.2568C15.4404 19.8936 14.8018 19.6094 14.0986 19.4043C13.4014 19.2051 12.6631 19.1055 11.8838 19.1055C11.1103 19.1055 10.3721 19.2051 9.66894 19.4043C8.97168 19.6094 8.333 19.8936 7.75293 20.2568C7.17871 20.626 6.68359 21.0566 6.26757 21.5488C5.85156 22.0469 5.54101 22.5859 5.33593 23.166ZM11.8838 17.5146C12.5225 17.5205 13.0967 17.3623 13.6064 17.04C14.1221 16.7119 14.5293 16.2666 14.8281 15.7041C15.1269 15.1416 15.2764 14.5059 15.2764 13.7969C15.2764 13.1348 15.124 12.5283 14.8193 11.9775C14.5205 11.4209 14.1133 10.9785 13.5977 10.6504C13.0879 10.3223 12.5166 10.1582 11.8838 10.1582C11.251 10.1582 10.6768 10.3223 10.1611 10.6504C9.65136 10.9785 9.24414 11.4209 8.93945 11.9775C8.64062 12.5283 8.49121 13.1348 8.49121 13.7969C8.49707 14.5059 8.64941 15.1387 8.94824 15.6953C9.24707 16.252 9.65136 16.6943 10.1611 17.0225C10.6768 17.3447 11.251 17.5088 11.8838 17.5146ZM3.60449 25.0732C2.45605 25.0732 1.58886 24.7803 1.00293 24.1943C0.416988 23.6084 0.12402 22.7471 0.12402 21.6104V10.0967C0.12402 8.96582 0.416988 8.11035 1.00293 7.53027C1.58886 6.94434 2.45605 6.65137 3.60449 6.65137H20.1455C21.2881 6.65137 22.1523 6.94434 22.7383 7.53027C23.3242 8.11621 23.6172 8.97168 23.6172 10.0967V21.6104C23.6172 22.7412 23.3242 23.5996 22.7383 24.1855C22.1523 24.7773 21.2881 25.0732 20.1455 25.0732H3.60449ZM2.41796 4.74414C2.48828 4.27539 2.65234 3.90918 2.91015 3.64551C3.16796 3.37598 3.56347 3.24121 4.09668 3.24121H19.6621C20.1894 3.24121 20.582 3.37598 20.8398 3.64551C21.1035 3.90918 21.2705 4.27539 21.3408 4.74414H2.41796ZM4.69433 1.61523C4.72363 1.16992 4.87011 0.830078 5.13379 0.595703C5.39746 0.355469 5.76953 0.235352 6.25 0.235352H17.5088C17.9893 0.235352 18.3584 0.355469 18.6162 0.595703C18.8799 0.830078 19.0293 1.16992 19.0644 1.61523H4.69433Z" fill="#FFF6A2"/>
</svg>
