<svg width="23" height="23" viewBox="0 0 23 23" fill="none" xmlns="http://www.w3.org/2000/svg">
<path d="M11.375 22.9043C11.1465 22.9043 10.9473 22.8281 10.7773 22.6758C10.6133 22.5293 10.5107 22.333 10.4697 22.0869C10.2939 20.7979 10.1094 19.6875 9.91601 18.7559C9.72265 17.8242 9.48535 17.0361 9.2041 16.3916C8.92871 15.7471 8.57715 15.2139 8.14941 14.792C7.72168 14.3643 7.18554 14.0156 6.54101 13.7461C5.90234 13.4766 5.12597 13.251 4.21191 13.0693C3.30371 12.8877 2.22265 12.7178 0.968748 12.5596C0.716795 12.5244 0.511717 12.4248 0.353514 12.2607C0.195311 12.0908 0.116209 11.8887 0.116209 11.6543C0.116209 11.4141 0.195311 11.209 0.353514 11.0391C0.517576 10.8691 0.722654 10.7725 0.968748 10.749C2.22265 10.6143 3.30957 10.4648 4.22949 10.3008C5.14941 10.1309 5.93164 9.91113 6.57617 9.6416C7.2207 9.37207 7.75683 9.02051 8.18457 8.58691C8.61816 8.15332 8.97265 7.6084 9.24804 6.95215C9.52929 6.2959 9.76074 5.49902 9.94238 4.56152C10.1299 3.62402 10.3057 2.51074 10.4697 1.22168C10.5107 0.975586 10.6133 0.776367 10.7773 0.624023C10.9473 0.47168 11.1465 0.395508 11.375 0.395508C11.6094 0.395508 11.8086 0.47168 11.9727 0.624023C12.1367 0.776367 12.2393 0.975586 12.2803 1.22168C12.4443 2.50488 12.6201 3.61523 12.8076 4.55273C12.9951 5.49023 13.2295 6.28711 13.5107 6.94336C13.792 7.59961 14.1465 8.14453 14.5742 8.57812C15.0078 9.01172 15.5439 9.36328 16.1826 9.63281C16.8271 9.89648 17.6064 10.1133 18.5205 10.2832C19.4404 10.4531 20.5303 10.6084 21.79 10.749C22.0303 10.7725 22.2295 10.8721 22.3877 11.0479C22.5518 11.2178 22.6338 11.4199 22.6338 11.6543C22.6338 11.8887 22.5518 12.0908 22.3877 12.2607C22.2295 12.4307 22.0303 12.5303 21.79 12.5596C20.5303 12.6885 19.4404 12.8379 18.5205 13.0078C17.6006 13.1719 16.8184 13.3916 16.1738 13.667C15.5293 13.9365 14.9902 14.2881 14.5566 14.7217C14.1289 15.1494 13.7744 15.6914 13.4932 16.3477C13.2178 17.0039 12.9863 17.8008 12.7988 18.7383C12.6113 19.6816 12.4385 20.7979 12.2803 22.0869C12.2451 22.3271 12.1426 22.5234 11.9727 22.6758C11.8086 22.8281 11.6094 22.9043 11.375 22.9043Z" fill="#FFF6A2"/>
</svg>
