<svg width="24" height="26" viewBox="0 0 24 26" fill="none" xmlns="http://www.w3.org/2000/svg">
<path d="M3.85449 25.0732C2.70605 25.0732 1.83887 24.7803 1.25293 24.1943C0.66699 23.6084 0.374022 22.7471 0.374022 21.6104V10.0967C0.374022 8.96582 0.66699 8.11035 1.25293 7.53027C1.83887 6.94434 2.70605 6.65137 3.85449 6.65137H20.3955C21.5381 6.65137 22.4023 6.94434 22.9883 7.53027C23.5742 8.11621 23.8672 8.97168 23.8672 10.0967V21.6104C23.8672 22.7412 23.5742 23.5996 22.9883 24.1855C22.4023 24.7773 21.5381 25.0732 20.3955 25.0732H3.85449ZM2.66797 4.74414C2.73828 4.27539 2.90234 3.90918 3.16015 3.64551C3.41797 3.37598 3.81347 3.24121 4.34668 3.24121H19.9121C20.4395 3.24121 20.832 3.37598 21.0898 3.64551C21.3535 3.90918 21.5205 4.27539 21.5908 4.74414H2.66797ZM4.94433 1.61523C4.97363 1.16992 5.12012 0.830078 5.38379 0.595703C5.64746 0.355469 6.01953 0.235352 6.5 0.235352H17.7588C18.2393 0.235352 18.6084 0.355469 18.8662 0.595703C19.1299 0.830078 19.2793 1.16992 19.3145 1.61523H4.94433ZM12.7051 20.626C12.8047 20.626 12.8896 20.5938 12.96 20.5293C13.0361 20.4648 13.083 20.377 13.1006 20.2656C13.2236 19.5508 13.3467 18.9473 13.4697 18.4551C13.5928 17.9629 13.7451 17.5557 13.9268 17.2334C14.1143 16.9111 14.3633 16.6533 14.6738 16.46C14.9844 16.2607 15.3828 16.0996 15.8691 15.9766C16.3555 15.8535 16.9678 15.748 17.7061 15.6602C17.8174 15.6426 17.9053 15.5957 17.9697 15.5195C18.04 15.4434 18.0752 15.3496 18.0752 15.2383C18.0752 15.0156 17.9521 14.8838 17.7061 14.8428C16.9795 14.749 16.3701 14.6406 15.8779 14.5176C15.3857 14.3945 14.9814 14.2334 14.665 14.0342C14.3486 13.835 14.0967 13.5771 13.9092 13.2607C13.7217 12.9385 13.5664 12.5312 13.4434 12.0391C13.3262 11.5469 13.2119 10.9463 13.1006 10.2373C13.0596 9.99121 12.9277 9.86816 12.7051 9.86816C12.5937 9.86816 12.5 9.90332 12.4238 9.97363C12.3535 10.0381 12.3066 10.123 12.2832 10.2285C12.1602 10.9551 12.0371 11.5645 11.9141 12.0566C11.791 12.5488 11.6357 12.9561 11.4482 13.2783C11.2666 13.5947 11.0205 13.8525 10.71 14.0518C10.3994 14.2451 10.001 14.4004 9.51465 14.5176C9.02832 14.6348 8.41894 14.7432 7.68652 14.8428C7.57519 14.8545 7.48437 14.8984 7.41406 14.9746C7.34961 15.0508 7.31738 15.1387 7.31738 15.2383C7.31738 15.3496 7.34961 15.4434 7.41406 15.5195C7.48437 15.5898 7.57519 15.6367 7.68652 15.6602C8.41894 15.7188 9.03125 15.8037 9.52344 15.915C10.0156 16.0264 10.4199 16.1816 10.7363 16.3809C11.0527 16.5801 11.3047 16.8467 11.4922 17.1807C11.6855 17.5146 11.8379 17.9336 11.9492 18.4375C12.0664 18.9355 12.1777 19.5449 12.2832 20.2656C12.3184 20.5059 12.459 20.626 12.7051 20.626ZM8.04687 22.4805C8.20508 22.4805 8.30469 22.4014 8.3457 22.2432C8.41601 21.8213 8.47754 21.4844 8.53027 21.2324C8.58887 20.9863 8.67383 20.7959 8.78515 20.6611C8.90234 20.5322 9.08691 20.4326 9.33887 20.3623C9.59668 20.292 9.96289 20.2217 10.4375 20.1514C10.6016 20.1221 10.6836 20.0254 10.6836 19.8613C10.6836 19.6914 10.6016 19.5947 10.4375 19.5713C9.96875 19.4951 9.60547 19.4219 9.34765 19.3516C9.08984 19.2812 8.90234 19.1787 8.78515 19.0439C8.66797 18.915 8.58301 18.7305 8.53027 18.4902C8.47754 18.2441 8.41601 17.916 8.3457 17.5059C8.30469 17.3242 8.20508 17.2334 8.04687 17.2334C7.90039 17.2334 7.80078 17.3242 7.74804 17.5059C7.67187 17.916 7.60742 18.2441 7.55469 18.4902C7.50195 18.7305 7.41699 18.915 7.2998 19.0439C7.18847 19.1729 7.00683 19.2725 6.75488 19.3428C6.50293 19.4189 6.13965 19.4951 5.66504 19.5713C5.50097 19.5947 5.41894 19.6914 5.41894 19.8613C5.41894 20.0254 5.50976 20.1221 5.6914 20.1514C6.15429 20.2217 6.50879 20.292 6.75488 20.3623C7.00683 20.4326 7.18847 20.5322 7.2998 20.6611C7.41699 20.79 7.50195 20.9775 7.55469 21.2236C7.60742 21.4697 7.67187 21.8008 7.74804 22.2168C7.80078 22.3926 7.90039 22.4805 8.04687 22.4805Z" fill="#FFF6A2"/>
</svg>
