<svg width="30" height="23" viewBox="0 0 30 23" fill="none" xmlns="http://www.w3.org/2000/svg">
<path d="M2.61035 22.2451C1.80762 22.2451 1.19824 22.043 0.782225 21.6387C0.366209 21.2344 0.158201 20.6426 0.158201 19.8633V9.94043C0.158201 9.16113 0.366209 8.56934 0.782225 8.16504C1.19824 7.76074 1.80762 7.55859 2.61035 7.55859H5.88867C6.6914 7.55859 7.30078 7.76074 7.71679 8.16504C8.13867 8.56934 8.34961 9.1582 8.34961 9.93164V19.8633C8.34961 20.6426 8.13867 21.2344 7.71679 21.6387C7.30078 22.043 6.6914 22.2451 5.88867 22.2451H2.61035ZM12.9814 22.2451C12.1787 22.2451 11.5693 22.043 11.1533 21.6387C10.7373 21.2344 10.5293 20.6426 10.5293 19.8633V6.64453C10.5293 5.87109 10.7373 5.28223 11.1533 4.87793C11.5693 4.46777 12.1787 4.2627 12.9814 4.2627H16.251C17.0596 4.2627 17.6719 4.46777 18.0879 4.87793C18.5098 5.28223 18.7207 5.87109 18.7207 6.64453V19.8633C18.7207 20.6426 18.5098 21.2344 18.0879 21.6387C17.6719 22.043 17.0596 22.2451 16.251 22.2451H12.9814ZM23.3525 22.2451C22.5557 22.2451 21.9463 22.043 21.5244 21.6387C21.1084 21.2344 20.9004 20.6426 20.9004 19.8633V3.34863C20.9004 2.56934 21.1084 1.97754 21.5244 1.57324C21.9463 1.16895 22.5557 0.966797 23.3525 0.966797H26.6309C27.4336 0.966797 28.043 1.16895 28.459 1.57324C28.8809 1.97754 29.0918 2.56934 29.0918 3.34863V19.8633C29.0918 20.6426 28.8809 21.2344 28.459 21.6387C28.043 22.043 27.4336 22.2451 26.6309 22.2451H23.3525Z" fill="#FFF6A2"/>
</svg>
